<svg width="360" height="95" viewBox="0 0 360 95" fill="none" xmlns="http://www.w3.org/2000/svg">
<path d="M34.9908 36.1365C20.7749 32.9455 18.2483 30.7058 18.2483 25.9998C18.2483 21.5539 22.692 18.5618 29.3084 18.5618C35.7183 18.5618 42.0692 20.8339 48.7348 25.5112C48.9314 25.6528 49.187 25.7092 49.4328 25.6722C49.6884 25.637 49.9047 25.5084 50.0522 25.315L56.993 16.1047C57.2781 15.7253 57.1994 15.2024 56.816 14.9127C48.8822 8.92219 39.9556 6.00974 29.5148 6.00974C14.1684 6.00974 3.44251 14.6804 3.44251 27.0863C3.44251 40.3899 12.6937 45.1005 28.6792 48.7367C42.2757 51.6862 44.5762 54.1572 44.5762 58.5735C44.5762 63.4692 39.9359 66.514 32.4642 66.514C24.1667 66.514 17.393 63.8764 9.82295 57.7128C9.63616 57.5555 9.38056 57.4907 9.14461 57.5C8.889 57.5185 8.66287 57.6295 8.50557 57.8054L0.71927 66.5233C0.394841 66.8934 0.434186 67.4302 0.807771 67.7449C9.61651 75.1486 20.4505 79.0541 32.1496 79.0541C48.6856 79.0541 59.3721 70.549 59.3721 57.3796C59.4016 46.2676 52.333 40.1132 35.0203 36.1485L34.9908 36.1365ZM96.7896 22.9393C89.6227 22.9393 83.7437 25.5972 78.8871 31.0436V24.9133C78.8871 24.4293 78.4741 24.0351 77.9629 24.0351H65.2315C64.7203 24.0351 64.3074 24.4293 64.3074 24.9133V93.0286C64.3074 93.5099 64.7203 93.9078 65.2315 93.9078H77.9629C78.4741 93.9078 78.8871 93.5099 78.8871 93.0286V71.53C83.7437 76.6479 89.6227 79.1559 96.7896 79.1559C110.111 79.1559 123.599 69.5033 123.599 51.0504C123.619 32.5938 110.131 22.9384 96.7995 22.9384L96.7896 22.9393ZM108.794 51.0504C108.794 60.4429 102.649 67.0045 93.8403 67.0045C85.1397 67.0045 78.5725 60.1468 78.5725 51.0504C78.5725 41.953 85.1397 35.0972 93.8403 35.0972C102.502 35.0962 108.794 41.8049 108.794 51.0504ZM157.949 69C140.794 69 156.449 9.31459 136 22.9393C130 40.6324 133.5 79.2577 157.949 79.2577C182.164 79.2577 182.5 40.6324 179.5 22.9393C157.949 8.53072 175.046 69 157.949 69ZM225.273 24.0351H211.264V10.5547C211.264 10.0716 210.851 9.67736 210.34 9.67736H197.608C197.097 9.67736 196.674 10.0716 196.674 10.5547V24.0351H190.559C190.048 24.0351 189.635 24.4293 189.635 24.9133V35.211C189.635 35.6941 190.048 36.0893 190.559 36.0893H196.674V62.7381C196.674 73.5013 202.367 78.9615 213.604 78.9615C218.165 78.9615 221.951 78.0731 225.519 76.1666C225.814 76.0186 225.991 75.7224 225.991 75.4077V65.5978C225.991 65.3016 225.824 65.0147 225.549 64.8574C225.273 64.6908 224.929 64.6816 224.644 64.8204C222.196 65.9772 219.827 66.514 217.173 66.514C213.093 66.514 211.264 64.7649 211.264 60.8594V36.0939H225.273C225.785 36.0939 226.198 35.6996 226.198 35.2156V24.9189C226.217 24.4349 225.804 24.0406 225.283 24.0406L225.273 24.0351ZM274.075 24.0878V22.4322C274.075 17.5614 276.061 15.3893 280.505 15.3893C283.159 15.3893 285.293 15.8854 287.682 16.635C287.977 16.722 288.281 16.6785 288.517 16.5129C288.763 16.3472 288.901 16.0816 288.901 15.8003V5.70341C288.901 5.31749 288.645 4.97599 288.242 4.86216C285.725 4.15603 282.501 3.43139 277.664 3.43139C265.916 3.43139 259.692 9.66348 259.692 21.4475V23.9832H253.577C253.066 23.9832 252.643 24.3775 252.643 24.8606V35.211C252.643 35.6941 253.066 36.0893 253.577 36.0893H259.692V77.1846C259.692 77.6751 260.115 78.0638 260.626 78.0638H273.348C273.869 78.0638 274.282 77.6751 274.282 77.1846V36.0921H286.168L304.375 77.1846C302.311 81.4973 300.276 82.358 297.503 82.358C295.262 82.358 292.892 81.7287 290.484 80.4793C290.258 80.3682 289.982 80.3497 289.746 80.4145C289.501 80.4978 289.294 80.6644 289.196 80.8865L284.88 89.7988C284.673 90.2245 284.85 90.715 285.283 90.9371C289.786 93.2322 293.846 94.2132 298.87 94.2132C308.268 94.2132 313.469 90.0856 318.04 78.9986L340.121 25.2872C340.239 25.017 340.2 24.7116 340.023 24.4719C339.856 24.234 339.571 24.0906 339.266 24.0906H326.014C325.61 24.0906 325.257 24.3284 325.129 24.6792L311.552 61.1741L296.687 24.6551C296.549 24.3155 296.205 24.0906 295.822 24.0906H274.075V24.0878ZM245.781 24.0351H233.05C232.539 24.0351 232.116 24.4293 232.116 24.9133V77.1846C232.116 77.6751 232.539 78.0638 233.05 78.0638H245.781C246.293 78.0638 246.715 77.6751 246.715 77.1846V24.917C246.715 24.433 246.302 24.0388 245.781 24.0388V24.0351ZM239.489 0.232971C234.446 0.232971 230.356 4.07551 230.356 8.82224C230.356 13.5717 234.446 17.4189 239.489 17.4189C244.533 17.4189 248.613 13.5717 248.613 8.82224C248.613 4.07644 244.523 0.232971 239.489 0.232971ZM350.995 40.8425C345.961 40.8425 342.038 37.0342 342.038 32.4096C342.038 27.7851 346.01 23.9333 351.044 23.9333C356.077 23.9333 360 27.7406 360 32.3615C360 36.986 356.028 40.8425 350.995 40.8425ZM351.044 24.7717C346.453 24.7717 342.982 28.2052 342.982 32.4096C342.982 36.6122 346.433 39.9994 350.995 39.9994C355.586 39.9994 359.056 36.5687 359.056 32.3615C359.056 28.1589 355.605 24.7717 351.044 24.7717ZM353.03 33.2286L355.566 36.5677H353.423L351.142 33.5044H349.186V36.5677H347.396V27.7166H351.584C353.777 27.7166 355.212 28.7688 355.212 30.5402C355.222 31.9913 354.327 32.8779 353.039 33.2286H353.03ZM351.516 29.2353H349.186V32.0348H351.516C352.676 32.0348 353.374 31.499 353.374 30.6336C353.374 29.723 352.676 29.2353 351.516 29.2353Z" fill="#62CD5D"/>
</svg>
